# AST/ASF file generated using VICON BodyLanguage
# -----------------------------------------------
:version 1.10
:name VICON
:units
  mass 1.0
  length 0.45
  angle deg
:documentation
   .ast/.asf automatically generated from VICON data using
   VICON BodyBuilder and BodyLanguage model FoxedUp or BRILLIANT.MOD
:root
   order TX TY TZ RX RY RZ
   axis XYZ
   position 0 0 0  
   orientation 0 0 0 
:bonedata
  begin
     id 1 
     name lhipjoint
     direction 0.566809 -0.746272 0.349008 
     length 2.40479 
     axis 0 0 0  XYZ
  end
  begin
     id 2 
     name lfemur
     direction 0.34202 -0.939693 0  
     length 7.1578  
     axis 0 0 20  XYZ
    dof rx ry rz
    limits (-160.0 20.0)
           (-70.0 70.0)
           (-60.0 70.0)
  end
  begin
     id 3 
     name ltibia
     direction 0.34202 -0.939693 0   
     length 7.49137   
     axis 0 0 20   XYZ
    dof rx
    limits (-10.0 170.0)
  end
  begin
     id 4 
     name lfoot
     direction 0.0665746 -0.182912 0.980873   
     length 2.36784   
     axis -90 7.62852e-016 20   XYZ
    dof rx rz
    limits (-45.0 90.0)
           (-70.0 20.0)
  end
  begin
     id 5 
     name ltoes
     direction 1.53601e-011 -4.22058e-011 1   
     length 1.18966   
     axis -90 7.62852e-016 20   XYZ
    dof rx
    limits (-90.0 20.0)
  end
  begin
     id 6 
     name rhipjoint
     direction -0.550236 -0.756381 0.353735   
     length 2.37265  
     axis 0 0 0  XYZ 
  end
  begin
     id 7 
     name rfemur
     direction -0.34202 -0.939693 0   
     length 7.43386   
     axis 0 0 -20   XYZ
    dof rx ry rz
    limits (-160.0 20.0)
           (-70.0 70.0)
           (-70.0 60.0)
  end
  begin
     id 8 
     name rtibia
     direction -0.34202 -0.939693 0   
     length 7.50908   
     axis 0 0 -20   XYZ
    dof rx
    limits (-10.0 170.0)
 end
 begin
     id 9 
     name rfoot
     direction -0.0683029 -0.187661 0.979856   
     length 2.41173  
     axis -90 -7.62852e-016 -20   XYZ
    dof rx rz
    limits (-45.0 90.0)
           (-20.0 70.0)
  end
  begin
     id 10 
     name rtoes
     direction -1.53528e-011 -4.21968e-011 1   
     length 1.21082   
     axis -90 -7.62852e-016 -20   XYZ
    dof rx
    limits (-90.0 20.0)
  end
  begin
     id 11 
     name lowerback
     direction 0.013823 0.995423 -0.0945635   
     length 2.04495   
     axis 0 0 0   XYZ
    dof rx ry rz
    limits (-20.0 45.0)
           (-30.0 30.0)
           (-30.0 30.0)
  end
  begin
     id 12 
     name upperback
     direction 0.0276657 0.9994 -0.020853   
     length 2.05008   
     axis 0 0 0   XYZ
    dof rx ry rz
    limits (-20.0 45.0)
           (-30.0 30.0)
           (-30.0 30.0)
  end
  begin
     id 13 
     name thorax
     direction 0.019782 0.999531 0.0233827   
     length 2.06488   
     axis 0 0 0   XYZ
    dof rx ry rz
    limits (-20.0 45.0)
           (-30.0 30.0)
           (-30.0 30.0)
  end
  begin
     id 14 
     name lowerneck
     direction -0.0308541 0.994709 0.0979874   
     length 1.75553   
     axis 0 0 0   XYZ
    dof rx ry rz
    limits (-20.0 45.0)
           (-30.0 30.0)
           (-30.0 30.0)
  end
  begin
     id 15 
     name upperneck
     direction 0.0588398 0.995804 -0.0700903   
     length 1.76878   
     axis 0 0 0   XYZ
    dof rx ry rz
    limits (-20.0 45.0)
           (-30.0 30.0)
           (-30.0 30.0)
  end
  begin
     id 16
     name head
     direction 0.0209966 0.999159 -0.0352225  
     length 1.77193  
     axis 0 0 0   XYZ
    dof rx ry rz
    limits (-20.0 45.0)
           (-30.0 30.0)
           (-30.0 30.0)
  end
  begin
     id 17 
     name lclavicle
     direction 0.938182 0.335073 -0.0868338  
     length 3.58396  
     axis 0 0 0   XYZ
    dof ry rz
    limits (-20.0 10.0)
           (0.0 20.0)
  end
  begin
     id 18 
     name lhumerus
     direction 1 -4.48971e-011 -1.26313e-017   
     length 4.983   
     axis 180 -30 -90   XYZ
    dof rx ry rz
    limits (-60.0 90.0)
           (-90.0 90.0)
           (-90.0 90.0)
  end
  begin
     id 19
     name lradius
     direction 1 -4.48948e-011 -5.89033e-027   
     length 3.48356   
     axis 180 -30 -90   XYZ
    dof rx
    limits (-10.0 170.0)
  end
  begin
     id 20
     name lwrist
     direction 1 -4.48977e-011 -1.48983e-026   
     length 1.74178   
     axis 9.0955e-015 90 90   XYZ
    dof ry
    limits (-180.0 0.0)
 end
  begin
     id 21 
     name lhand
     direction 1 -4.49046e-011 -2.98066e-026   
     length 0.715259   
     axis 1.90115e-014 90 90   XYZ
    dof rx rz
    limits (-90.0 90.0)
           (-45.0 45.0)
  end
  begin
     id 22 
     name lfingers
     direction 1 -4.48907e-011 -5.95731e-026   
     length 0.576661   
     axis 3.80223e-014 90 90   XYZ
    dof rx
    limits (0.0 90.0)
  end
  begin
     id 23
     name lthumb
     direction 0.707107 -6.34963e-011 0.707107   
     length 0.827973   
     axis -90 45 -3.84942e-014   XYZ
    dof rx rz
    limits (-45.0 45.0)
           (-45.0 45.0)
  end
  begin
     id 24 
     name rclavicle
     direction -0.909637 0.398485 -0.11735   
     length 3.44819  
     axis 0 0 0   XYZ 
    dof ry rz
    limits (-10.0 20.0)
           (-20.0 0.0)
  end
  begin
     id 25 
     name rhumerus
     direction -1 -4.48978e-011 -1.09333e-027  
     length 5.2419   
     axis 180 30 90   XYZ
    dof rx ry rz
    limits (-90.0 60.0)
           (-90.0 90.0)
           (-90.0 90.0)
  end
  begin
     id 26 
     name rradius
     direction -1 -4.48953e-011 -7.61841e-027   
     length 3.44417   
     axis 180 30 90   XYZ
    dof rx
    limits (-10.0 170.0)
  end
  begin
     id 27 
     name rwrist
     direction -1 -4.48977e-011 -1.48983e-026   
     length 1.72209   
     axis 9.0955e-015 -90 -90   XYZ
    dof ry
    limits (-180.0 0.0)
  end
  begin
     id 28
     name rhand
     direction -1 -4.49027e-011 -2.98038e-026   
     length 0.622529   
     axis 1.90115e-014 -90 -90   XYZ
    dof rx rz
    limits (-90.0 90.0)
           (-45.0 45.0)
  end
  begin
     id 29
     name rfingers
     direction -1 -4.48838e-011 -5.95531e-026   
     length 0.501899   
     axis 3.80223e-014 -90 -90   XYZ
    dof rx
    limits (0.0 90.0)
  end
  begin
     id 30
     name rthumb
     direction -0.707107 -6.34937e-011 0.707107   
     length 0.720629   
     axis -90 -45 3.84942e-014   XYZ
    dof rx rz
    limits (-45.0 45.0)
           (-45.0 45.0)
  end
:hierarchy
  begin
    root lhipjoint rhipjoint lowerback
    lhipjoint lfemur
    lfemur ltibia
    ltibia lfoot
    lfoot ltoes
    rhipjoint rfemur
    rfemur rtibia
    rtibia rfoot
    rfoot rtoes
    lowerback upperback
    upperback thorax
    thorax lowerneck lclavicle rclavicle
    lowerneck upperneck
    upperneck head
    lclavicle lhumerus
    lhumerus lradius
    lradius lwrist
    lwrist lhand lthumb
    lhand lfingers
    rclavicle rhumerus
    rhumerus rradius
    rradius rwrist
    rwrist rhand rthumb
    rhand rfingers
  end

#!OML:ASF F:\VICON\USERDATA\Patient Classification 1\PLAYGROUND\JustinFriday\JustinFriday.ASF
:FULLY-SPECIFIED
:DEGREES
672
root 12.8432 21.0499 51.0016 -346.763 -186.223 9.7077
lowerback 25.1474 1.3774 3.91243
upperback 2.53679 3.45212 -0.270881
thorax -10.9611 1.66663 -3.76284
lowerneck 5.98051 -4.33144 -5.09332
upperneck -18.3555 -2.73945 15.6618
head -6.14219 -1.66962 6.05796
rclavicle 2.62396e-014 1.11319e-014
rhumerus 6.6487 19.0756 -88.4535
rradius 56.0479
rwrist 18.754
rhand -38.109 5.44417
rfingers 7.12502
rthumb -11.1444 -24.2399
lclavicle 2.62396e-014 1.11319e-014
lhumerus 40.2768 -18.8265 58.1269
lradius 72.4122
lwrist -11.8354
lhand 3.24063 -9.53546
lfingers 7.12502
lthumb 28.6905 18.2811
rfemur -31.3113 -3.38667 28.3024
rtibia 53.1028
rfoot -3.87707 -10.4711
rtoes 4.50092
lfemur -52.3583 10.1023 -16.2445
ltibia 63.0594
lfoot -32.4299 -5.01238
ltoes 11.3328
673
root 12.8245 21.1326 50.9952 -346.771 -186.336 9.65137
lowerback 25.5672 1.35884 3.81593
upperback 2.49592 3.43051 -0.224367
thorax -11.2425 1.65237 -3.67395
lowerneck 5.94881 -4.22898 -5.3041
upperneck -18.7653 -2.48264 15.8729
head -6.28306 -1.52888 6.16637
rclavicle -9.54166e-015 0
rhumerus 6.60073 18.8916 -88.7044
rradius 55.307
rwrist 19.2656
rhand -38.4695 6.61375
rfingers 7.12502
rthumb -11.4921 -23.0512
lclavicle -9.54166e-015 0
lhumerus 40.5043 -19.1578 57.5609
lradius 71.3961
lwrist -9.81067
lhand 7.50451 -9.7153
lfingers 7.12502
lthumb 32.7558 17.3361
rfemur -32.9494 -3.52465 28.1847
rtibia 55.7408
rfoot -4.3473 -10.8215
rtoes 4.11227
lfemur -51.5785 9.91064 -16.2793
ltibia 61.7624
lfoot -31.9328 -4.46299
ltoes 9.47318
674
root 12.806 21.2193 50.987 -346.815 -186.484 9.6093
lowerback 25.8198 1.34109 3.75443
upperback 2.5893 3.42161 -0.200228
thorax -11.2763 1.65971 -3.62043
lowerneck 5.80654 -4.14553 -5.3922
upperneck -19.1474 -2.24993 15.9845
head -6.39898 -1.39437 6.2171
rclavicle 1.55052e-014 1.59028e-014
rhumerus 6.85562 18.7721 -88.9009
rradius 54.4182
rwrist 19.6341
rhand -39.322 7.79375
rfingers 7.12502
rthumb -12.3141 -21.8236
lclavicle 1.55052e-014 1.59028e-014
lhumerus 41.1377 -19.5094 56.7287
lradius 70.06
lwrist -8.45051
lhand 10.64 -9.40124
lfingers 7.12502
lthumb 35.7331 16.9804
rfemur -34.5047 -3.59792 28.0523
rtibia 58.2996
rfoot -5.36805 -11.0001
rtoes 2.50427
lfemur -50.7629 9.91321 -16.3664
ltibia 60.4295
lfoot -31.2182 -4.23201
ltoes 8.35597
675
root 12.788 21.3103 50.9792 -346.682 -186.611 9.82545
lowerback 25.8413 1.3082 3.96708
upperback 2.68732 3.45865 -0.158162
thorax -11.1637 1.6802 -3.70574
lowerneck 5.80448 -4.1748 -5.05286
upperneck -19.733 -2.15117 15.7785
head -6.60745 -1.33976 6.10557
rclavicle 1.27222e-014 -1.51076e-014
rhumerus 7.14231 18.6088 -89.0945
rradius 53.6632
rwrist 20.0837
rhand -40.0977 8.62455
rfingers 7.12502
rthumb -13.062 -20.9464
lclavicle 1.27222e-014 -1.51076e-014
lhumerus 42.05 -20.1578 55.6455
lradius 68.4046
lwrist -7.5161
lhand 12.3279 -8.52449
lfingers 7.12502
lthumb 37.3308 17.4537
rfemur -36.1907 -3.48367 28.1994
rtibia 60.788
rfoot -6.54053 -11.2372
rtoes 5.10987
lfemur -50.0816 9.97624 -16.1829
ltibia 59.0465
lfoot -30.4377 -4.23212
ltoes 8.58159
676
root 12.7725 21.4058 50.9766 -346.677 -186.717 9.72549
lowerback 25.2453 1.25137 3.79686
upperback 3.37203 3.38169 -0.157188
thorax -10.0864 1.73801 -3.52682
lowerneck 5.5644 -4.25271 -4.79106
upperneck -20.8358 -1.94407 15.7741
head -6.94379 -1.20454 6.08206
rclavicle -2.06736e-014 3.18055e-015
rhumerus 8.43778 18.6845 -88.8544
rradius 52.982
rwrist 20.2361
rhand -40.8758 8.92358
rfingers 7.12502
rthumb -13.8119 -20.5979
lclavicle -2.06736e-014 3.18055e-015
lhumerus 43.4468 -20.2925 54.1384
lradius 66.9374
lwrist -6.50389
lhand 13.7047 -7.71445
lfingers 7.12502
lthumb 38.631 17.9103
rfemur -37.8052 -3.47891 28.0239
rtibia 63.2351
rfoot -7.77163 -11.5848
rtoes 9.23282
lfemur -49.212 9.85717 -16.305
ltibia 57.564
lfoot -29.8983 -3.90907
ltoes 8.89295
